<svg width="150" height="55" viewBox="0 0 150 55" fill="none" xmlns="http://www.w3.org/2000/svg">
<path fill-rule="evenodd" clip-rule="evenodd" d="M32.587 11.0477L36.558 1.99888C40.0684 -3.78914 48.1841 4.18989 42.4702 10.7402C34.2316 18.8608 25.6408 23.5902 34.423 36.7034L35.1692 37.8323C43.2566 49.1664 29.4786 55.0333 27.1635 41.1011C24.0176 22.589 21.5684 22.2903 5.26012 21.9384C-2.42398 22.0011 -1.41657 10.2641 6.50459 11.9106L15.6476 16.2147C22.0911 18.3092 27.1835 20.8567 32.587 11.0477Z" fill="#2079AA"/>
<path fill-rule="evenodd" clip-rule="evenodd" d="M33.9408 35.9626C34.096 36.207 34.2554 36.4536 34.4231 36.7041L35.1693 37.8326C43.2569 49.1668 29.4785 55.0329 27.163 41.1009C27.0666 40.5334 26.9711 39.9835 26.8755 39.4499L33.9408 35.9626Z" fill="#A9D046"/>
<path fill-rule="evenodd" clip-rule="evenodd" d="M10.3982 22.0872C8.85619 22.0193 7.15262 21.9791 5.26043 21.9384C-2.42375 22.0009 -1.41684 10.2641 6.50414 11.9103L12.2707 14.6251L10.3982 22.0872Z" fill="#A9D046"/>
<path fill-rule="evenodd" clip-rule="evenodd" d="M33.6097 8.71681L36.5581 1.99884C40.0688 -3.78952 48.1841 4.19008 42.4701 10.7399C41.0663 12.1233 39.6523 13.4079 38.3159 14.6528L33.6097 8.71681Z" fill="#A9D046"/>
<path d="M42.7671 38.46L45.6124 24.9364C45.6592 24.7491 45.7001 24.5558 45.7353 24.3568C45.7704 24.1578 45.8113 23.9529 45.8582 23.7421C45.9519 23.1567 46.0456 22.5654 46.1392 21.9682C46.233 21.3711 46.3149 20.7681 46.3851 20.1592H52.0053L51.3028 23.4962L51.3731 23.4611C52.1458 22.2903 53.0942 21.3769 54.2183 20.7212C55.3423 20.0655 56.5483 19.7377 57.8363 19.7377C57.8597 19.7377 57.8831 19.7377 57.9065 19.7377C57.9299 19.7377 57.9533 19.7377 57.9768 19.7377C59.0305 19.7611 60.0141 20.0831 60.9274 20.7037C61.8407 21.3242 62.4144 22.2434 62.6485 23.4611C63.4214 22.2903 64.3757 21.3769 65.5114 20.7212C66.6471 20.0655 67.8707 19.7377 69.1821 19.7377C69.2055 19.7377 69.2348 19.7377 69.2699 19.7377C69.305 19.7377 69.346 19.7377 69.3928 19.7377C70.751 19.7611 72.0039 20.1767 73.1513 20.9847C74.2988 21.7926 74.8725 23.1918 74.8725 25.1823C74.8725 25.5335 74.8609 25.9083 74.8374 26.3063C74.814 26.7044 74.7789 27.1025 74.732 27.5006C74.7086 27.805 74.6735 28.1095 74.6266 28.4139C74.5799 28.7183 74.5213 29.0111 74.451 29.2921L72.5542 38.46H66.2315L68.0581 29.5731C68.0815 29.5028 68.099 29.4384 68.1108 29.3799C68.1224 29.3213 68.1283 29.2687 68.1283 29.2218C68.222 28.8003 68.2922 28.3905 68.3391 27.9924C68.3859 27.5943 68.4093 27.2313 68.4093 26.9035C68.4093 26.2946 68.2571 25.8262 67.9526 25.4984C67.6482 25.1706 67.1214 25.0066 66.3719 25.0066C65.4118 25.0066 64.68 25.3521 64.1766 26.0429C63.6731 26.7337 63.2925 27.5006 63.035 28.3436C62.9413 28.6247 62.8594 28.9115 62.7891 29.2043C62.7189 29.4969 62.6603 29.7721 62.6134 30.0298L60.822 38.46H54.4993L56.3259 29.5731C56.3492 29.5028 56.3668 29.4384 56.3785 29.3799C56.3903 29.3213 56.3961 29.2687 56.3961 29.2218C56.4897 28.8003 56.56 28.3905 56.6069 27.9924C56.6537 27.5943 56.6771 27.2313 56.6771 26.9035C56.6771 26.2946 56.5249 25.8262 56.2205 25.4984C55.9161 25.1706 55.3891 25.0066 54.6398 25.0066C53.6797 25.0066 52.9479 25.3521 52.4444 26.0429C51.9409 26.7337 51.5604 27.5006 51.3028 28.3436C51.2091 28.6247 51.1272 28.9115 51.0569 29.2043C50.9867 29.4969 50.9281 29.7721 50.8813 30.0298L49.0898 38.46H42.7671Z" fill="#2079AA"/>
<path d="M86.6892 38.638L86.9702 36.0738L86.8999 36.0034V36.0738C86.2442 37.1275 85.3661 37.8828 84.2654 38.3394C83.1648 38.796 81.994 39.0243 80.7529 39.0243C78.7857 39.0243 77.2754 38.5911 76.2215 37.7246C75.1677 36.8582 74.6408 35.5352 74.6408 33.7554C74.6408 31.5073 75.6244 29.8271 77.5915 28.7147C79.5586 27.6025 81.9354 27.0463 84.7221 27.0463C85.1904 27.0463 85.6588 27.058 86.1271 27.0814C86.5955 27.1048 87.017 27.1283 87.3917 27.1517C87.5322 27.1751 87.661 27.1926 87.7781 27.2044C87.8952 27.2161 88.0123 27.2219 88.1293 27.2219C88.1762 27.1048 88.1996 26.9819 88.1996 26.853C88.1996 26.7243 88.1996 26.6013 88.1996 26.4842C88.1996 25.8286 87.8952 25.2723 87.2863 24.8158C86.6775 24.3591 85.8579 24.1308 84.8274 24.1308C84.1718 24.1308 83.5688 24.1601 83.0185 24.2186C82.4682 24.2772 81.9354 24.3884 81.4202 24.5523C81.0221 24.6694 80.6124 24.8099 80.1908 24.9738C79.7693 25.1378 79.3361 25.3368 78.8912 25.571L79.5234 20.9694C80.4601 20.6416 81.4554 20.3839 82.5091 20.1967C83.5629 20.0093 84.804 19.9156 86.2326 19.9156C88.4104 19.9156 90.2779 20.3898 91.8352 21.3382C93.3924 22.2867 94.1711 23.8849 94.1711 26.133C94.1711 27.0463 94.0364 28.0942 93.7672 29.2768C93.4978 30.4594 93.1875 31.7649 92.8363 33.1934C92.6489 34.013 92.4675 34.8735 92.2918 35.7751C92.1162 36.6767 91.9698 37.631 91.8528 38.638H86.6892ZM80.6124 33.0178C80.6124 33.0645 80.6182 33.1173 80.6298 33.1758C80.6416 33.2343 80.6474 33.2871 80.6474 33.3339C80.7411 33.7086 80.9694 34.0539 81.3324 34.3701C81.6953 34.6863 82.1696 34.8443 82.7551 34.8443C84.1133 34.8443 85.1904 34.4287 85.9866 33.5973C86.7828 32.766 87.2981 31.7415 87.5322 30.5237C87.4385 30.5004 87.3332 30.4828 87.2161 30.4711C87.099 30.4594 86.9702 30.4535 86.8297 30.4535C86.6423 30.4301 86.4608 30.4184 86.2853 30.4184C86.1096 30.4184 85.9632 30.4184 85.8461 30.4184C85.7759 30.4184 85.7056 30.4184 85.6354 30.4184C85.5651 30.4184 85.4949 30.4184 85.4246 30.4184C84.0195 30.4184 82.8663 30.6584 81.9647 31.1385C81.0631 31.6186 80.6124 32.2449 80.6124 33.0178Z" fill="#2079AA"/>
<path d="M92.7176 38.638L98.1973 12.2932H104.59L99.1106 38.638H92.7176Z" fill="#2079AA"/>
<path d="M123.659 20.3372L120.814 33.8608C120.767 34.0481 120.726 34.2413 120.691 34.4404C120.656 34.6394 120.615 34.8443 120.568 35.0551C120.474 35.6405 120.381 36.2318 120.287 36.829C120.193 37.4261 120.111 38.0291 120.041 38.638H114.175L114.667 35.6522H114.597C113.683 36.6592 112.694 37.4729 111.628 38.0935C110.563 38.714 109.199 39.0243 107.536 39.0243C105.686 39.0243 104.275 38.4214 103.303 37.2153C102.332 36.0094 101.846 34.5165 101.846 32.7368C101.846 32.5494 101.846 32.3738 101.846 32.2099C101.846 32.0459 101.857 31.882 101.881 31.7181C101.904 31.3434 101.951 30.9452 102.021 30.5237C102.092 30.1022 102.197 29.552 102.337 28.8729L104.024 20.3372H110.557L108.801 28.908C108.777 29.0016 108.754 29.1012 108.73 29.2066C108.707 29.3119 108.684 29.4115 108.66 29.5051C108.59 29.8798 108.526 30.2427 108.467 30.594C108.409 30.9452 108.379 31.3083 108.379 31.6829C108.379 32.1981 108.561 32.6782 108.924 33.1231C109.287 33.5681 109.878 33.7906 110.698 33.7906C110.698 33.7906 110.703 33.7906 110.715 33.7906C110.727 33.7906 110.744 33.7906 110.768 33.7906C110.791 33.7906 110.809 33.7906 110.82 33.7906C110.832 33.7906 110.838 33.7906 110.838 33.7906C112.173 33.7906 113.232 33.2929 114.017 32.2977C114.801 31.3024 115.311 30.1256 115.545 28.7675L117.336 20.3372H123.659H123.659Z" fill="#2079AA"/>
<path d="M121.793 38.638L127.273 12.2932H133.666L128.186 38.638H121.793Z" fill="#2079AA"/>
<path d="M142.518 38.638L142.799 36.0738L142.729 36.0034V36.0738C142.073 37.1275 141.195 37.8828 140.094 38.3394C138.994 38.796 137.823 39.0243 136.582 39.0243C134.615 39.0243 133.104 38.5911 132.05 37.7246C130.997 36.8582 130.47 35.5352 130.47 33.7554C130.47 31.5073 131.453 29.8271 133.42 28.7147C135.388 27.6025 137.764 27.0463 140.551 27.0463C141.019 27.0463 141.488 27.058 141.956 27.0814C142.424 27.1048 142.846 27.1283 143.221 27.1517C143.361 27.1751 143.49 27.1926 143.607 27.2044C143.724 27.2161 143.841 27.2219 143.958 27.2219C144.005 27.1048 144.029 26.9819 144.029 26.853C144.029 26.7243 144.029 26.6013 144.029 26.4842C144.029 25.8286 143.724 25.2723 143.115 24.8158C142.506 24.3591 141.687 24.1308 140.656 24.1308C140.001 24.1308 139.398 24.1601 138.847 24.2186C138.297 24.2772 137.764 24.3884 137.249 24.5523C136.851 24.6694 136.441 24.8099 136.02 24.9738C135.598 25.1378 135.165 25.3368 134.72 25.571L135.352 20.9694C136.289 20.6416 137.284 20.3839 138.338 20.1967C139.392 20.0093 140.633 19.9156 142.062 19.9156C144.239 19.9156 146.107 20.3898 147.664 21.3382C149.221 22.2867 150 23.8849 150 26.133C150 27.0463 149.865 28.0942 149.596 29.2768C149.327 30.4594 149.016 31.7649 148.665 33.1934C148.478 34.013 148.296 34.8735 148.121 35.7751C147.945 36.6767 147.799 37.631 147.682 38.638H142.518ZM136.441 33.0178C136.441 33.0645 136.447 33.1173 136.459 33.1758C136.471 33.2343 136.476 33.2871 136.476 33.3339C136.57 33.7086 136.798 34.0539 137.161 34.3701C137.524 34.6863 137.999 34.8443 138.584 34.8443C139.942 34.8443 141.019 34.4287 141.816 33.5973C142.612 32.766 143.127 31.7415 143.361 30.5237C143.268 30.5004 143.162 30.4828 143.045 30.4711C142.928 30.4594 142.799 30.4535 142.659 30.4535C142.471 30.4301 142.29 30.4184 142.114 30.4184C141.939 30.4184 141.792 30.4184 141.675 30.4184C141.605 30.4184 141.535 30.4184 141.464 30.4184C141.394 30.4184 141.324 30.4184 141.254 30.4184C139.849 30.4184 138.695 30.6584 137.794 31.1385C136.892 31.6186 136.441 32.2449 136.441 33.0178" fill="#2079AA"/>
</svg>
