<svg width="300" height="110" viewBox="0 0 300 110" fill="none" xmlns="http://www.w3.org/2000/svg">
<g clip-path="url(#clip0)">
<path fill-rule="evenodd" clip-rule="evenodd" d="M65.1741 22.0954L73.116 3.99776C80.1369 -7.57829 96.3682 8.37977 84.9404 21.4803C68.4633 37.7217 51.2817 47.1804 68.8462 73.4069L70.3385 75.6646C86.5132 98.3328 58.9572 110.067 54.3271 82.2021C48.0353 45.178 43.1369 44.5805 10.5203 43.8769C-4.8479 44.0023 -2.83308 20.5281 13.0092 23.8212L31.2952 32.4294C44.1822 36.6183 54.367 41.7135 65.1741 22.0954Z" fill="#2079AA"/>
<path fill-rule="evenodd" clip-rule="evenodd" d="M67.8816 71.9253C68.192 72.414 68.5107 72.9071 68.8462 73.4081L70.3386 75.6651C86.5138 98.3335 58.957 110.066 54.326 82.2019C54.1331 81.0668 53.9421 79.9671 53.751 78.8998L67.8816 71.9253Z" fill="#A9D046"/>
<path fill-rule="evenodd" clip-rule="evenodd" d="M20.7963 44.1744C17.7124 44.0387 14.3052 43.9583 10.5209 43.8769C-4.84751 44.0019 -2.83369 20.5282 13.0083 23.8205L24.5413 29.2501L20.7963 44.1744Z" fill="#A9D046"/>
<path fill-rule="evenodd" clip-rule="evenodd" d="M67.2195 17.4336L73.1161 3.99768C80.1376 -7.57903 96.3683 8.38016 84.9402 21.4798C82.1327 24.2467 79.3046 26.8158 76.6319 29.3055L67.2195 17.4336Z" fill="#A9D046"/>
<path d="M85.5342 76.9201L91.2248 49.8728C91.3183 49.4982 91.4002 49.1116 91.4706 48.7135C91.5408 48.3156 91.6226 47.9057 91.7164 47.4842C91.9039 46.3133 92.0911 45.1307 92.2785 43.9364C92.4659 42.7421 92.6297 41.5362 92.7702 40.3184H104.011L102.606 46.9924L102.746 46.9222C104.292 44.5805 106.188 42.7539 108.437 41.4425C110.685 40.131 113.097 39.4754 115.673 39.4754C115.719 39.4754 115.766 39.4754 115.813 39.4754C115.86 39.4754 115.907 39.4754 115.954 39.4754C118.061 39.5222 120.028 40.1662 121.855 41.4073C123.681 42.6485 124.829 44.4868 125.297 46.9222C126.843 44.5805 128.751 42.7539 131.023 41.4425C133.294 40.131 135.741 39.4754 138.364 39.4754C138.411 39.4754 138.47 39.4754 138.54 39.4754C138.61 39.4754 138.692 39.4754 138.786 39.4754C141.502 39.5222 144.008 40.3534 146.303 41.9694C148.598 43.5852 149.745 46.3836 149.745 50.3646C149.745 51.0671 149.722 51.8166 149.675 52.6125C149.628 53.4089 149.558 54.205 149.464 55.0013C149.417 55.61 149.347 56.2191 149.253 56.8278C149.16 57.4367 149.043 58.0221 148.902 58.5841L145.108 76.9201H132.463L136.116 59.1461C136.163 59.0057 136.198 58.8767 136.222 58.7599C136.245 58.6427 136.257 58.5374 136.257 58.4436C136.444 57.6006 136.584 56.781 136.678 55.9848C136.772 55.1886 136.819 54.4626 136.819 53.8069C136.819 52.5892 136.514 51.6524 135.905 50.9968C135.296 50.3411 134.243 50.0132 132.744 50.0132C130.824 50.0132 129.36 50.7041 128.353 52.0858C127.346 53.4674 126.585 55.0012 126.07 56.6873C125.883 57.2493 125.719 57.823 125.578 58.4085C125.438 58.9938 125.321 59.5442 125.227 60.0596L121.644 76.9201H108.999L112.652 59.1461C112.698 59.0057 112.734 58.8767 112.757 58.7599C112.781 58.6427 112.792 58.5374 112.792 58.4436C112.979 57.6006 113.12 56.781 113.214 55.9848C113.307 55.1886 113.354 54.4626 113.354 53.8069C113.354 52.5892 113.05 51.6524 112.441 50.9968C111.832 50.3411 110.778 50.0132 109.28 50.0132C107.359 50.0132 105.896 50.7041 104.889 52.0858C103.882 53.4674 103.121 55.0012 102.606 56.6873C102.418 57.2493 102.254 57.823 102.114 58.4085C101.973 58.9938 101.856 59.5442 101.763 60.0596L98.1796 76.9201H85.5342Z" fill="#2079AA"/>
<path d="M173.378 77.276L173.94 72.1475L173.8 72.0069V72.1475C172.488 74.255 170.732 75.7655 168.531 76.6788C166.33 77.592 163.988 78.0486 161.506 78.0486C157.571 78.0486 154.551 77.1823 152.443 75.4493C150.335 73.7165 149.282 71.0703 149.282 67.5108C149.282 63.0146 151.249 59.6542 155.183 57.4294C159.117 55.2049 163.871 54.0927 169.444 54.0927C170.381 54.0927 171.318 54.116 172.254 54.1628C173.191 54.2096 174.034 54.2565 174.783 54.3033C175.064 54.3502 175.322 54.3852 175.556 54.4087C175.79 54.4323 176.025 54.4437 176.259 54.4437C176.352 54.2096 176.399 53.9638 176.399 53.7061C176.399 53.4486 176.399 53.2027 176.399 52.9684C176.399 51.6571 175.79 50.5447 174.573 49.6316C173.355 48.7182 171.716 48.2616 169.655 48.2616C168.344 48.2616 167.138 48.3201 166.037 48.4372C164.936 48.5543 163.871 48.7768 162.84 49.1046C162.044 49.3388 161.225 49.6198 160.382 49.9477C159.539 50.2755 158.672 50.6736 157.782 51.142L159.047 41.9389C160.92 41.2832 162.911 40.7679 165.018 40.3933C167.126 40.0186 169.608 39.8313 172.465 39.8313C176.821 39.8313 180.556 40.7797 183.67 42.6765C186.785 44.5733 188.342 47.7697 188.342 52.266C188.342 54.0927 188.073 56.1883 187.534 58.5536C186.996 60.9188 186.375 63.5297 185.673 66.3868C185.298 68.026 184.935 69.7471 184.584 71.5503C184.232 73.3534 183.94 75.2621 183.706 77.276H173.378ZM161.225 66.0355C161.225 66.1291 161.236 66.2346 161.26 66.3515C161.283 66.4687 161.295 66.5742 161.295 66.6678C161.482 67.4172 161.939 68.1079 162.665 68.7403C163.391 69.3726 164.339 69.6885 165.51 69.6885C168.227 69.6885 170.381 68.8573 171.973 67.1947C173.566 65.5321 174.596 63.4829 175.064 61.0475C174.877 61.0007 174.666 60.9656 174.432 60.9422C174.198 60.9188 173.94 60.9071 173.659 60.9071C173.285 60.8603 172.922 60.8368 172.571 60.8368C172.219 60.8368 171.926 60.8368 171.692 60.8368C171.552 60.8368 171.411 60.8368 171.271 60.8368C171.13 60.8368 170.99 60.8368 170.849 60.8368C168.039 60.8368 165.733 61.3169 163.929 62.277C162.126 63.2371 161.225 64.4899 161.225 66.0355Z" fill="#2079AA"/>
<path d="M185.435 77.276L196.395 24.5864H209.181L198.221 77.276H185.435Z" fill="#2079AA"/>
<path d="M247.318 40.6743L241.628 67.7216C241.534 68.0963 241.452 68.4827 241.382 68.8808C241.312 69.2789 241.23 69.6886 241.136 70.1102C240.949 71.2811 240.761 72.4636 240.574 73.6579C240.387 74.8522 240.223 76.0583 240.082 77.276H228.35L229.334 71.3045H229.193C227.367 73.3184 225.388 74.9458 223.257 76.1869C221.126 77.4281 218.398 78.0486 215.072 78.0486C211.372 78.0486 208.551 76.8427 206.607 74.4306C204.663 72.0187 203.691 69.033 203.691 65.4735C203.691 65.0988 203.691 64.7476 203.691 64.4197C203.691 64.0918 203.715 63.7639 203.762 63.4362C203.808 62.6867 203.902 61.8905 204.043 61.0475C204.183 60.2045 204.394 59.1039 204.675 57.7457L208.047 40.6743H221.114L217.601 57.816C217.555 58.0032 217.508 58.2024 217.461 58.4131C217.414 58.6238 217.367 58.8229 217.32 59.0102C217.18 59.7596 217.051 60.4855 216.934 61.1881C216.817 61.8905 216.758 62.6166 216.758 63.3658C216.758 64.3963 217.121 65.3564 217.847 66.2462C218.573 67.1362 219.756 67.5811 221.395 67.5811C221.395 67.5811 221.407 67.5811 221.43 67.5811C221.454 67.5811 221.489 67.5811 221.536 67.5811C221.582 67.5811 221.618 67.5811 221.641 67.5811C221.664 67.5811 221.676 67.5811 221.676 67.5811C224.346 67.5811 226.465 66.5858 228.034 64.5954C229.603 62.6049 230.621 60.2513 231.09 57.535L234.673 40.6743H247.318H247.318Z" fill="#2079AA"/>
<path d="M243.586 77.276L254.546 24.5864H267.331L256.372 77.276H243.586Z" fill="#2079AA"/>
<path d="M285.036 77.276L285.598 72.1475L285.458 72.0069V72.1475C284.146 74.255 282.39 75.7655 280.189 76.6788C277.988 77.592 275.646 78.0486 273.164 78.0486C269.229 78.0486 266.209 77.1823 264.101 75.4493C261.993 73.7165 260.94 71.0703 260.94 67.5108C260.94 63.0146 262.907 59.6542 266.841 57.4294C270.775 55.2049 275.529 54.0927 281.102 54.0927C282.039 54.0927 282.976 54.116 283.912 54.1628C284.849 54.2096 285.692 54.2565 286.441 54.3033C286.722 54.3502 286.98 54.3852 287.214 54.4087C287.448 54.4323 287.682 54.4437 287.917 54.4437C288.01 54.2096 288.057 53.9638 288.057 53.7061C288.057 53.4486 288.057 53.2027 288.057 52.9684C288.057 51.6571 287.448 50.5447 286.23 49.6316C285.013 48.7182 283.374 48.2616 281.313 48.2616C280.002 48.2616 278.796 48.3201 277.695 48.4372C276.594 48.5543 275.529 48.7768 274.498 49.1046C273.702 49.3388 272.883 49.6198 272.04 49.9477C271.196 50.2755 270.33 50.6736 269.44 51.142L270.705 41.9389C272.578 41.2832 274.569 40.7679 276.676 40.3933C278.784 40.0186 281.266 39.8313 284.123 39.8313C288.479 39.8313 292.214 40.7797 295.328 42.6765C298.443 44.5733 300 47.7697 300 52.266C300 54.0927 299.731 56.1883 299.192 58.5536C298.654 60.9188 298.033 63.5297 297.331 66.3868C296.956 68.026 296.593 69.7471 296.242 71.5503C295.89 73.3534 295.597 75.2621 295.363 77.276H285.036ZM272.883 66.0355C272.883 66.1291 272.894 66.2346 272.918 66.3515C272.941 66.4687 272.953 66.5742 272.953 66.6678C273.14 67.4172 273.597 68.1079 274.323 68.7403C275.049 69.3726 275.997 69.6885 277.168 69.6885C279.885 69.6885 282.039 68.8573 283.631 67.1947C285.224 65.5321 286.254 63.4829 286.723 61.0475C286.535 61.0007 286.324 60.9656 286.09 60.9422C285.856 60.9188 285.598 60.9071 285.317 60.9071C284.943 60.8603 284.58 60.8368 284.229 60.8368C283.877 60.8368 283.584 60.8368 283.35 60.8368C283.21 60.8368 283.069 60.8368 282.929 60.8368C282.788 60.8368 282.648 60.8368 282.507 60.8368C279.697 60.8368 277.391 61.3169 275.587 62.277C273.784 63.2371 272.883 64.4899 272.883 66.0355" fill="#2079AA"/>
<path fill-rule="evenodd" clip-rule="evenodd" d="M299.072 86.1558C262.447 77.5322 215.052 80.8921 198.025 94.5387C259.976 82.7446 275.025 108.061 299.072 86.1558Z" fill="#A9D046"/>
<path d="M196.686 109.546L198.478 101.15H200.126C200.295 101.15 200.475 101.152 200.668 101.156C200.86 101.16 201.057 101.175 201.257 101.198C201.762 101.255 202.223 101.419 202.64 101.692C203.057 101.964 203.266 102.465 203.266 103.195C203.266 103.773 203.065 104.274 202.664 104.699C202.263 105.124 201.782 105.38 201.221 105.469C201.405 105.581 201.556 105.757 201.672 105.998C201.788 106.238 201.882 106.491 201.954 106.756C202.011 106.948 202.059 107.132 202.099 107.309C202.139 107.485 202.175 107.642 202.207 107.778L202.664 109.546H201.389L200.884 107.345C200.852 107.209 200.822 107.082 200.794 106.966C200.766 106.85 200.736 106.748 200.704 106.659C200.583 106.299 200.455 106.068 200.319 105.968C200.182 105.868 199.99 105.817 199.741 105.817H198.671L197.889 109.546H196.686ZM199.453 102.209L198.911 104.759H199.862C199.966 104.759 200.076 104.755 200.192 104.747C200.309 104.739 200.427 104.723 200.547 104.699C200.908 104.635 201.239 104.5 201.54 104.296C201.84 104.091 201.991 103.78 201.991 103.364C201.991 102.923 201.87 102.62 201.63 102.455C201.389 102.291 201.036 102.209 200.571 102.209H199.453ZM208.919 108.404L208.739 109.438C208.442 109.51 208.141 109.568 207.837 109.612C207.532 109.656 207.227 109.679 206.922 109.679C206.177 109.679 205.519 109.49 204.95 109.113C204.38 108.736 204.096 108.007 204.096 106.924C204.096 106.82 204.1 106.718 204.108 106.617C204.116 106.517 204.128 106.415 204.144 106.311C204.272 105.549 204.617 104.851 205.178 104.218C205.739 103.584 206.498 103.267 207.452 103.267C208.189 103.267 208.759 103.476 209.16 103.893C209.561 104.31 209.761 104.883 209.761 105.613C209.761 105.781 209.753 105.942 209.737 106.094C209.721 106.246 209.701 106.399 209.677 106.551C209.677 106.583 209.675 106.613 209.671 106.641C209.667 106.669 209.661 106.699 209.653 106.732H205.335C205.327 106.764 205.321 106.796 205.317 106.828C205.313 106.86 205.311 106.892 205.311 106.924C205.303 106.956 205.299 106.988 205.299 107.02C205.299 107.052 205.299 107.084 205.299 107.116C205.299 107.758 205.477 108.195 205.834 108.428C206.191 108.66 206.642 108.776 207.187 108.776C207.315 108.776 207.444 108.77 207.572 108.758C207.7 108.746 207.829 108.724 207.957 108.692C208.125 108.66 208.29 108.62 208.45 108.572C208.61 108.524 208.767 108.468 208.919 108.404ZM205.455 105.89H208.594C208.61 105.801 208.621 105.719 208.624 105.643C208.628 105.567 208.63 105.493 208.63 105.42C208.63 105.06 208.52 104.763 208.3 104.53C208.079 104.298 207.756 104.182 207.331 104.182C206.866 104.182 206.467 104.354 206.135 104.699C205.802 105.044 205.575 105.441 205.455 105.89ZM210.94 104.326L211.108 103.412H212.48L212.78 101.992L213.995 101.571L213.61 103.412H215.294L215.114 104.326H213.418L212.853 106.96C212.844 107.008 212.835 107.064 212.822 107.129C212.81 107.193 212.796 107.261 212.78 107.333C212.772 107.365 212.766 107.395 212.762 107.423C212.758 107.451 212.752 107.481 212.744 107.514C212.728 107.634 212.712 107.75 212.696 107.862C212.68 107.975 212.672 108.059 212.672 108.115C212.672 108.331 212.736 108.496 212.865 108.608C212.993 108.72 213.201 108.776 213.49 108.776C213.546 108.776 213.604 108.774 213.664 108.77C213.725 108.766 213.787 108.756 213.851 108.74C213.931 108.732 214.009 108.716 214.085 108.692C214.162 108.668 214.228 108.644 214.284 108.62L214.115 109.558C214.043 109.574 213.951 109.592 213.839 109.612C213.727 109.632 213.614 109.646 213.502 109.655C213.414 109.663 213.328 109.669 213.243 109.672C213.159 109.677 213.081 109.679 213.009 109.679C212.512 109.679 212.151 109.554 211.926 109.306C211.702 109.057 211.578 108.785 211.553 108.488C211.545 108.464 211.541 108.438 211.541 108.41C211.541 108.382 211.541 108.355 211.541 108.331C211.541 108.243 211.547 108.139 211.559 108.019C211.571 107.898 211.589 107.778 211.614 107.658C211.622 107.602 211.63 107.546 211.638 107.489C211.646 107.433 211.658 107.377 211.674 107.321C211.69 107.241 211.706 107.163 211.722 107.086C211.738 107.01 211.75 106.944 211.758 106.888L212.287 104.326H210.94ZM215.463 106.96C215.463 105.934 215.765 105.062 216.371 104.344C216.976 103.626 217.84 103.267 218.963 103.267C219.789 103.267 220.449 103.504 220.942 103.977C221.435 104.45 221.681 105.108 221.681 105.95C221.681 106.992 221.385 107.874 220.791 108.596C220.198 109.318 219.352 109.679 218.253 109.679C217.411 109.679 216.736 109.452 216.226 108.999C215.717 108.546 215.463 107.866 215.463 106.96ZM216.666 107.044C216.666 107.533 216.794 107.944 217.05 108.277C217.307 108.61 217.704 108.776 218.241 108.776C218.851 108.776 219.366 108.5 219.787 107.947C220.208 107.393 220.439 106.784 220.479 106.118C220.479 106.086 220.479 106.056 220.479 106.028C220.479 106 220.479 105.974 220.479 105.95C220.479 105.493 220.346 105.084 220.082 104.723C219.817 104.362 219.428 104.182 218.915 104.182C218.289 104.182 217.794 104.412 217.429 104.873C217.064 105.334 216.83 105.841 216.726 106.395C216.71 106.507 216.696 106.617 216.684 106.726C216.672 106.834 216.666 106.94 216.666 107.044ZM222.668 109.546L223.738 104.35C223.754 104.286 223.768 104.218 223.78 104.145C223.792 104.073 223.807 103.997 223.823 103.917C223.839 103.845 223.855 103.765 223.871 103.676C223.887 103.588 223.899 103.5 223.907 103.412H224.965L224.773 104.386H224.797C224.981 104.097 225.242 103.839 225.579 103.61C225.916 103.382 226.353 103.267 226.89 103.267C226.946 103.267 227.02 103.275 227.113 103.291C227.205 103.307 227.303 103.335 227.407 103.376L227.155 104.374C227.05 104.334 226.954 104.304 226.866 104.284C226.778 104.264 226.713 104.254 226.674 104.254C226.208 104.254 225.819 104.394 225.507 104.675C225.194 104.955 224.949 105.264 224.773 105.601C224.685 105.769 224.613 105.934 224.556 106.094C224.5 106.254 224.46 106.399 224.436 106.527L223.799 109.546H222.668H222.668ZM227.347 109.546L228.417 104.35C228.434 104.286 228.448 104.218 228.459 104.145C228.471 104.073 228.485 103.997 228.502 103.917C228.518 103.845 228.534 103.765 228.55 103.676C228.566 103.588 228.578 103.5 228.586 103.412H229.644L229.452 104.386H229.476C229.66 104.097 229.921 103.839 230.258 103.61C230.595 103.382 231.032 103.267 231.569 103.267C232.162 103.267 232.652 103.426 233.037 103.743C233.422 104.059 233.614 104.542 233.614 105.192C233.614 105.272 233.61 105.354 233.602 105.439C233.594 105.523 233.586 105.609 233.578 105.697C233.562 105.801 233.546 105.906 233.53 106.01C233.514 106.114 233.494 106.214 233.47 106.311L232.796 109.546H231.665L232.423 105.878C232.431 105.853 232.437 105.828 232.441 105.799C232.445 105.771 232.447 105.745 232.447 105.721C232.455 105.641 232.463 105.563 232.471 105.487C232.479 105.41 232.483 105.348 232.483 105.3C232.483 104.979 232.385 104.713 232.188 104.5C231.992 104.288 231.717 104.182 231.365 104.182C230.899 104.182 230.51 104.322 230.198 104.602C229.885 104.883 229.641 105.192 229.464 105.529C229.376 105.697 229.304 105.862 229.248 106.022C229.191 106.182 229.151 106.327 229.127 106.455L228.478 109.546H227.347H227.347ZM234.841 106.96C234.841 105.934 235.143 105.062 235.749 104.344C236.354 103.626 237.218 103.267 238.341 103.267C239.167 103.267 239.827 103.504 240.32 103.977C240.813 104.45 241.059 105.108 241.059 105.95C241.059 106.992 240.763 107.874 240.169 108.596C239.576 109.318 238.73 109.679 237.631 109.679C236.789 109.679 236.114 109.452 235.604 108.999C235.095 108.546 234.841 107.866 234.841 106.96ZM236.044 107.044C236.044 107.533 236.172 107.944 236.428 108.277C236.685 108.61 237.082 108.776 237.619 108.776C238.229 108.776 238.744 108.5 239.165 107.947C239.586 107.393 239.817 106.784 239.857 106.118C239.857 106.086 239.857 106.056 239.857 106.028C239.857 106 239.857 105.974 239.857 105.95C239.857 105.493 239.724 105.084 239.46 104.723C239.195 104.362 238.806 104.182 238.293 104.182C237.667 104.182 237.172 104.412 236.807 104.873C236.442 105.334 236.208 105.841 236.104 106.395C236.088 106.507 236.074 106.617 236.062 106.726C236.05 106.834 236.044 106.94 236.044 107.044H236.044ZM245.462 109.546L246.761 103.412H247.892L246.593 109.546H245.462ZM248.529 100.765L248.265 102.041H246.99L247.254 100.765H248.529ZM248.734 109.546L249.864 104.109C249.88 104.053 249.892 103.999 249.9 103.947C249.908 103.895 249.917 103.837 249.925 103.773C249.933 103.717 249.943 103.658 249.955 103.598C249.967 103.538 249.977 103.476 249.985 103.412H251.043L250.899 104.254H250.923C251.14 103.925 251.419 103.678 251.759 103.514C252.1 103.35 252.471 103.267 252.872 103.267C253.233 103.267 253.568 103.354 253.876 103.526C254.185 103.698 254.392 103.969 254.496 104.338C254.8 103.985 255.123 103.718 255.464 103.538C255.805 103.358 256.208 103.267 256.673 103.267C257.17 103.267 257.579 103.416 257.9 103.712C258.221 104.009 258.381 104.394 258.381 104.867C258.381 104.995 258.371 105.136 258.351 105.288C258.331 105.441 258.309 105.593 258.285 105.745C258.269 105.817 258.255 105.887 258.243 105.956C258.231 106.024 258.216 106.09 258.201 106.154L257.491 109.546H256.36L257.178 105.661C257.202 105.541 257.22 105.43 257.232 105.33C257.244 105.23 257.25 105.148 257.25 105.084C257.25 104.827 257.172 104.613 257.016 104.44C256.859 104.268 256.637 104.182 256.348 104.182C255.907 104.182 255.538 104.35 255.241 104.687C254.945 105.024 254.72 105.392 254.568 105.793C254.52 105.906 254.479 106.02 254.447 106.136C254.415 106.252 254.387 106.363 254.363 106.467L253.678 109.546H252.547L253.365 105.661C253.389 105.541 253.407 105.43 253.419 105.33C253.431 105.23 253.437 105.148 253.437 105.084C253.437 104.827 253.359 104.613 253.202 104.44C253.046 104.268 252.823 104.182 252.535 104.182C252.094 104.182 251.725 104.35 251.428 104.687C251.132 105.024 250.907 105.392 250.755 105.793C250.706 105.906 250.666 106.02 250.634 106.136C250.602 106.252 250.574 106.363 250.55 106.467L249.864 109.546H248.734H248.734ZM264.395 108.404L264.214 109.438C263.917 109.51 263.617 109.568 263.312 109.612C263.007 109.656 262.703 109.679 262.398 109.679C261.652 109.679 260.995 109.49 260.425 109.113C259.856 108.736 259.571 108.007 259.571 106.924C259.571 106.82 259.575 106.718 259.583 106.617C259.591 106.517 259.603 106.415 259.619 106.311C259.748 105.549 260.092 104.851 260.654 104.218C261.215 103.584 261.973 103.267 262.927 103.267C263.665 103.267 264.234 103.476 264.635 103.893C265.036 104.31 265.237 104.883 265.237 105.613C265.237 105.781 265.229 105.942 265.213 106.094C265.197 106.246 265.176 106.399 265.152 106.551C265.152 106.583 265.152 106.613 265.146 106.641C265.142 106.669 265.137 106.699 265.129 106.732H260.81C260.802 106.764 260.796 106.796 260.792 106.828C260.788 106.86 260.786 106.892 260.786 106.924C260.778 106.956 260.774 106.988 260.774 107.02C260.774 107.052 260.774 107.084 260.774 107.116C260.774 107.758 260.953 108.195 261.309 108.428C261.666 108.66 262.117 108.776 262.663 108.776C262.791 108.776 262.919 108.77 263.048 108.758C263.176 108.746 263.304 108.724 263.433 108.692C263.601 108.66 263.765 108.62 263.926 108.572C264.086 108.524 264.242 108.468 264.395 108.404H264.395ZM260.93 105.89H264.07C264.086 105.801 264.096 105.719 264.1 105.643C264.104 105.567 264.106 105.493 264.106 105.42C264.106 105.06 263.996 104.763 263.775 104.53C263.555 104.298 263.232 104.182 262.807 104.182C262.342 104.182 261.943 104.354 261.61 104.699C261.277 105.044 261.051 105.441 260.931 105.89H260.93ZM273.368 100.525L271.853 107.514C271.78 107.858 271.714 108.199 271.654 108.536C271.594 108.873 271.544 109.209 271.504 109.546H270.445C270.453 109.514 270.459 109.484 270.463 109.456C270.467 109.428 270.473 109.398 270.481 109.366C270.497 109.294 270.511 109.221 270.523 109.149C270.535 109.077 270.549 109.001 270.565 108.921C270.581 108.873 270.595 108.821 270.607 108.764C270.619 108.708 270.633 108.656 270.649 108.608H270.625C270.417 109.017 270.132 109.298 269.771 109.45C269.41 109.602 268.997 109.679 268.532 109.679C267.794 109.679 267.231 109.426 266.842 108.921C266.453 108.416 266.259 107.814 266.259 107.116C266.259 106.154 266.527 105.272 267.065 104.47C267.602 103.668 268.392 103.267 269.434 103.267C269.851 103.267 270.24 103.36 270.601 103.544C270.962 103.729 271.231 104.021 271.407 104.422H271.431L272.237 100.525H273.368H273.368ZM267.462 107.032C267.462 107.521 267.582 107.935 267.823 108.271C268.063 108.608 268.44 108.776 268.954 108.776C269.483 108.776 269.906 108.574 270.223 108.169C270.539 107.764 270.762 107.317 270.89 106.828C270.938 106.659 270.972 106.493 270.992 106.329C271.013 106.164 271.023 106.006 271.023 105.853C271.023 105.396 270.892 105.003 270.632 104.675C270.371 104.346 269.992 104.182 269.495 104.182C268.99 104.182 268.577 104.384 268.256 104.789C267.935 105.194 267.711 105.641 267.582 106.13C267.542 106.283 267.512 106.437 267.492 106.593C267.472 106.75 267.462 106.896 267.462 107.032ZM273.536 109.546L274.836 103.412H275.966L274.667 109.546H273.536ZM276.604 100.765L276.339 102.041H275.064L275.329 100.765H276.604ZM277.927 104.699L278.131 103.58C278.236 103.548 278.348 103.516 278.468 103.484C278.588 103.452 278.709 103.424 278.829 103.4C279.013 103.36 279.194 103.328 279.37 103.303C279.547 103.279 279.703 103.267 279.839 103.267C280.457 103.267 281.016 103.408 281.517 103.688C282.019 103.969 282.269 104.478 282.269 105.216C282.269 105.288 282.265 105.368 282.257 105.457C282.249 105.545 282.241 105.633 282.233 105.721C282.225 105.801 282.215 105.88 282.203 105.956C282.191 106.032 282.177 106.106 282.161 106.178C282.137 106.291 282.113 106.405 282.089 106.521C282.065 106.637 282.041 106.752 282.017 106.864C281.928 107.321 281.84 107.774 281.752 108.223C281.664 108.672 281.588 109.113 281.523 109.546H280.477C280.509 109.394 280.543 109.23 280.579 109.053C280.615 108.877 280.649 108.7 280.682 108.524H280.657C280.465 108.893 280.186 109.177 279.821 109.378C279.457 109.578 279.07 109.679 278.661 109.679C278.147 109.679 277.692 109.542 277.295 109.27C276.898 108.997 276.7 108.572 276.7 107.995C276.7 107.121 277.049 106.529 277.746 106.22C278.444 105.912 279.306 105.757 280.333 105.757C280.413 105.757 280.499 105.759 280.591 105.763C280.683 105.767 280.778 105.773 280.874 105.781C280.874 105.781 280.878 105.781 280.886 105.781C280.894 105.781 280.902 105.781 280.91 105.781C280.95 105.781 280.99 105.783 281.03 105.787C281.07 105.791 281.11 105.793 281.15 105.793C281.15 105.777 281.154 105.761 281.156 105.745C281.16 105.729 281.166 105.713 281.174 105.697C281.182 105.649 281.19 105.601 281.199 105.553C281.206 105.505 281.21 105.453 281.21 105.396C281.21 104.955 281.08 104.643 280.819 104.458C280.559 104.274 280.22 104.182 279.803 104.182C279.739 104.182 279.675 104.183 279.611 104.188C279.546 104.192 279.482 104.198 279.418 104.206C279.145 104.238 278.881 104.298 278.624 104.386C278.368 104.474 278.135 104.578 277.927 104.699H277.927ZM278.913 108.776C279.434 108.776 279.863 108.578 280.2 108.181C280.537 107.784 280.758 107.345 280.862 106.864C280.87 106.824 280.878 106.782 280.886 106.738C280.894 106.694 280.902 106.647 280.91 106.599H280.044C279.94 106.599 279.828 106.603 279.707 106.611C279.587 106.619 279.467 106.631 279.347 106.647C278.986 106.711 278.655 106.84 278.354 107.032C278.053 107.225 277.903 107.53 277.903 107.947C277.903 108.219 278.003 108.426 278.204 108.566C278.404 108.706 278.641 108.776 278.913 108.776H278.913ZM283.797 104.326L283.965 103.412H285.336L285.637 101.992L286.852 101.571L286.467 103.412H288.151L287.971 104.326H286.275L285.709 106.96C285.701 107.008 285.691 107.064 285.679 107.129C285.667 107.193 285.653 107.261 285.637 107.333C285.629 107.365 285.623 107.395 285.619 107.423C285.615 107.451 285.609 107.481 285.601 107.514C285.585 107.634 285.569 107.75 285.553 107.862C285.537 107.975 285.529 108.059 285.529 108.115C285.529 108.331 285.593 108.496 285.721 108.608C285.85 108.72 286.058 108.776 286.347 108.776C286.403 108.776 286.461 108.774 286.521 108.77C286.581 108.766 286.644 108.756 286.708 108.74C286.788 108.732 286.866 108.716 286.942 108.692C287.018 108.668 287.085 108.644 287.141 108.62L286.972 109.558C286.9 109.574 286.808 109.592 286.696 109.612C286.583 109.632 286.471 109.646 286.359 109.655C286.271 109.663 286.184 109.669 286.1 109.672C286.016 109.677 285.938 109.679 285.866 109.679C285.369 109.679 285.008 109.554 284.783 109.306C284.559 109.057 284.434 108.785 284.41 108.488C284.402 108.464 284.398 108.438 284.398 108.41C284.398 108.382 284.398 108.355 284.398 108.331C284.398 108.243 284.404 108.139 284.416 108.019C284.428 107.898 284.446 107.778 284.47 107.658C284.478 107.602 284.486 107.546 284.495 107.489C284.502 107.433 284.515 107.377 284.531 107.321C284.547 107.241 284.563 107.163 284.579 107.086C284.595 107.01 284.607 106.944 284.615 106.888L285.144 104.326H283.797H283.797ZM288.319 106.96C288.319 105.934 288.622 105.062 289.228 104.344C289.833 103.626 290.697 103.267 291.82 103.267C292.646 103.267 293.305 103.504 293.799 103.977C294.292 104.45 294.538 105.108 294.538 105.95C294.538 106.992 294.242 107.874 293.648 108.596C293.055 109.318 292.209 109.679 291.11 109.679C290.268 109.679 289.592 109.452 289.083 108.999C288.574 108.546 288.319 107.866 288.319 106.96ZM289.522 107.044C289.522 107.533 289.651 107.944 289.907 108.277C290.164 108.61 290.561 108.776 291.098 108.776C291.708 108.776 292.223 108.5 292.644 107.947C293.065 107.393 293.295 106.784 293.335 106.118C293.335 106.086 293.335 106.056 293.335 106.028C293.335 106 293.335 105.974 293.335 105.95C293.335 105.493 293.203 105.084 292.938 104.723C292.674 104.362 292.285 104.182 291.772 104.182C291.146 104.182 290.651 104.412 290.286 104.873C289.921 105.334 289.687 105.841 289.582 106.395C289.567 106.507 289.552 106.617 289.54 106.726C289.528 106.834 289.522 106.94 289.522 107.044" fill="#2079AA"/>
<path d="M100.549 31.1263H96.7995V35H94.8464V25.5208H101.018V27.1029H96.7995V29.5508H100.549V31.1263ZM106.253 33.0469H102.828L102.177 35H100.1L103.629 25.5208H105.439L108.987 35H106.91L106.253 33.0469ZM103.355 31.4648H105.725L104.534 27.9167L103.355 31.4648ZM111.943 33.431H116.721V35H109.501V33.8542L114.189 27.1029H109.508V25.5208H116.617V26.6406L111.943 33.431ZM123.661 30.8919H119.911V33.431H124.312V35H117.958V25.5208H124.299V27.1029H119.911V29.362H123.661V30.8919ZM133.167 35H131.214L127.411 28.763V35H125.458V25.5208H127.411L131.22 31.7708V25.5208H133.167V35ZM134.872 35V25.5208H137.789C138.622 25.5208 139.367 25.7096 140.022 26.0872C140.682 26.4605 141.196 26.9944 141.565 27.6888C141.934 28.3789 142.118 29.1645 142.118 30.0456V30.4818C142.118 31.3628 141.936 32.1463 141.572 32.832C141.211 33.5178 140.701 34.0495 140.042 34.4271C139.382 34.8047 138.638 34.9957 137.809 35H134.872ZM136.826 27.1029V33.431H137.77C138.533 33.431 139.117 33.1814 139.521 32.6823C139.924 32.1832 140.131 31.4692 140.139 30.5404V30.0391C140.139 29.0755 139.94 28.3464 139.54 27.8516C139.141 27.3524 138.557 27.1029 137.789 27.1029H136.826ZM148.753 33.0469H145.328L144.677 35H142.6L146.129 25.5208H147.939L151.487 35H149.41L148.753 33.0469ZM145.855 31.4648H148.225L147.034 27.9167L145.855 31.4648Z" fill="#A9D046"/>
</g>
<defs>
<clipPath id="clip0">
<path d="M0 109.679H300V-3.63517e-06H0V109.679Z" fill="white"/>
</clipPath>
</defs>
</svg>
